<?xml version="1.0" standalone="no"?>
<!DOCTYPE svg PUBLIC "-//W3C//DTD SVG 20010904//EN"
 "http://www.w3.org/TR/2001/REC-SVG-20010904/DTD/svg10.dtd">
<svg version="1.0" xmlns="http://www.w3.org/2000/svg"
 width="200.000000pt" height="200.000000pt" viewBox="0 0 200.000000 200.000000"
 preserveAspectRatio="xMidYMid meet">
<metadata>
Created by potrace 1.14, written by Peter Selinger 2001-2017
</metadata>
<g transform="translate(0.000000,200.000000) scale(0.100000,-0.100000)"
fill="#000000" stroke="none">
<path d="M830 1945 c-159 -40 -309 -144 -405 -280 -85 -122 -125 -251 -125
-404 1 -209 65 -365 212 -509 l63 -62 436 0 437 0 56 60 c102 111 162 219 192
348 22 95 15 282 -15 377 -62 196 -226 368 -425 447 -76 30 -90 32 -226 35
-100 1 -162 -2 -200 -12z m213 -421 c3 -4 25 -8 49 -9 23 -2 47 -10 53 -18 8
-11 16 -12 28 -6 27 16 21 -14 -8 -41 -22 -20 -29 -22 -43 -12 -104 74 -236
39 -306 -82 -27 -45 -50 -149 -35 -154 12 -5 12 -42 0 -42 -5 0 -12 8 -14 18
-4 14 -5 14 -6 -3 -1 -32 34 -97 74 -137 66 -65 137 -86 225 -67 24 6 46 6 48
1 3 -10 81 64 105 101 10 16 16 36 12 45 -6 15 -8 15 -22 -3 -14 -19 -15 -18
-8 15 4 19 8 40 9 45 0 6 -37 11 -91 13 -85 2 -93 4 -93 22 0 13 7 20 18 20
10 0 21 3 25 6 10 11 211 4 224 -8 10 -8 13 -6 13 6 0 9 5 16 10 16 23 0 1
-130 -33 -195 -41 -79 -139 -135 -248 -143 -144 -10 -280 74 -328 203 -22 60
-29 178 -11 205 7 11 10 5 10 -22 0 -21 5 -38 11 -38 6 0 9 7 5 15 -5 14 1 34
28 95 17 39 102 119 141 134 52 19 146 31 158 20z"/>
<path d="M700 1180 c0 -11 5 -20 10 -20 6 0 10 9 10 20 0 11 -4 20 -10 20 -5
0 -10 -9 -10 -20z"/>
<path d="M1440 615 c0 -16 -7 -28 -17 -31 -10 -3 -26 -10 -35 -15 -10 -5 -177
-9 -381 -9 -336 0 -365 1 -400 19 -63 32 -67 33 -67 6 0 -34 39 -75 80 -84 35
-7 35 -7 42 -74 13 -109 56 -173 156 -227 25 -14 53 -39 62 -55 9 -17 31 -40
50 -52 75 -51 208 -12 214 62 1 6 25 23 54 38 101 55 161 138 162 225 0 49 14
82 35 82 7 0 27 12 44 26 31 26 39 60 25 98 -9 25 -24 19 -24 -9z m-330 -455
c23 -7 22 -8 -15 -15 -78 -17 -217 -5 -184 16 17 10 163 10 199 -1z"/>
</g>
</svg>
